<mxfile host="app.diagrams.net" agent="Mozilla/5.0 (Windows NT 10.0; Win64; x64; rv:129.0) Gecko/20100101 Firefox/129.0" version="24.7.8">
  <diagram name="Page-1" id="XZk4y257_CPvYdPWEkeV">
    <mxGraphModel dx="3374" dy="1864" grid="1" gridSize="10" guides="1" tooltips="1" connect="1" arrows="1" fold="1" page="1" pageScale="1" pageWidth="850" pageHeight="1100" math="0" shadow="0">
      <root>
        <mxCell id="0" />
        <mxCell id="1" parent="0" />
        <mxCell id="l6isEbVxny_hH4SEJy2Z-82" value="" style="rounded=1;whiteSpace=wrap;html=1;fillColor=#dae8fc;strokeColor=#6c8ebf;" parent="1" vertex="1">
          <mxGeometry x="-1470" y="-52" width="2290" height="1180" as="geometry" />
        </mxCell>
        <mxCell id="l6isEbVxny_hH4SEJy2Z-84" value="" style="rounded=1;whiteSpace=wrap;html=1;fillColor=#b0e3e6;strokeColor=#0e8088;" parent="1" vertex="1">
          <mxGeometry x="-1339" y="337" width="1080" height="770" as="geometry" />
        </mxCell>
        <mxCell id="l6isEbVxny_hH4SEJy2Z-39" value="" style="whiteSpace=wrap;html=1;aspect=fixed;glass=0;rounded=1;shadow=0;fillColor=#b0e3e6;strokeColor=#0e8088;" parent="1" vertex="1">
          <mxGeometry x="-185" y="385.31" width="650" height="650" as="geometry" />
        </mxCell>
        <mxCell id="lrqvdLVCCD_kgyAXPWSx-4" value="&lt;div&gt;&lt;font style=&quot;font-size: 24px;&quot;&gt;Script&lt;/font&gt;&lt;/div&gt;&lt;div&gt;&lt;font size=&quot;3&quot;&gt;[bash+python]&lt;br&gt;&lt;/font&gt;&lt;/div&gt;" style="whiteSpace=wrap;html=1;aspect=fixed;rounded=1;labelBackgroundColor=none;" parent="1" vertex="1">
          <mxGeometry x="-938.59" y="485" width="110" height="110" as="geometry" />
        </mxCell>
        <mxCell id="lrqvdLVCCD_kgyAXPWSx-7" value="&lt;font style=&quot;font-size: 24px;&quot;&gt;&lt;b&gt;WEB APPLICATION&lt;br&gt;&lt;/b&gt;&lt;/font&gt;" style="whiteSpace=wrap;html=1;aspect=fixed;rounded=1;labelBackgroundColor=none;fillColor=#f8cecc;strokeColor=#b85450;" parent="1" vertex="1">
          <mxGeometry x="-534.4400000000002" y="140" width="180" height="180" as="geometry" />
        </mxCell>
        <mxCell id="lrqvdLVCCD_kgyAXPWSx-9" value="&lt;div&gt;&lt;font style=&quot;font-size: 24px;&quot;&gt;&lt;b&gt;&lt;font&gt;frontend&lt;/font&gt;&lt;/b&gt;&lt;/font&gt;&lt;/div&gt;&lt;div&gt;&lt;font size=&quot;3&quot;&gt;&lt;b&gt;&lt;font&gt;&lt;font&gt;[html,css,js]&lt;/font&gt;&lt;font&gt;&lt;br&gt;&lt;/font&gt;&lt;/font&gt;&lt;/b&gt;&lt;/font&gt;&lt;/div&gt;" style="whiteSpace=wrap;html=1;aspect=fixed;rounded=1;labelBackgroundColor=none;fillColor=#b0e3e6;strokeColor=#0e8088;" parent="1" vertex="1">
          <mxGeometry x="125" y="185" width="110" height="110" as="geometry" />
        </mxCell>
        <mxCell id="lrqvdLVCCD_kgyAXPWSx-14" value="&lt;div&gt;&lt;font style=&quot;font-size: 24px;&quot;&gt;&lt;br&gt;&lt;/font&gt;&lt;/div&gt;&lt;div&gt;&lt;font size=&quot;3&quot;&gt;Client Auth&lt;br&gt;&lt;br&gt;&lt;/font&gt;&lt;/div&gt;" style="whiteSpace=wrap;html=1;aspect=fixed;rounded=1;labelBackgroundColor=none;fillColor=#dae8fc;strokeColor=#6c8ebf;" parent="1" vertex="1">
          <mxGeometry x="-488.88" y="385.56" width="88.88" height="88.88" as="geometry" />
        </mxCell>
        <mxCell id="lrqvdLVCCD_kgyAXPWSx-15" value="" style="endArrow=classic;startArrow=classic;html=1;rounded=1;exitX=0.362;exitY=-0.029;exitDx=0;exitDy=0;labelBackgroundColor=none;fontColor=default;exitPerimeter=0;dashed=1;" parent="1" source="l6isEbVxny_hH4SEJy2Z-35" target="lrqvdLVCCD_kgyAXPWSx-14" edge="1">
          <mxGeometry width="50" height="50" relative="1" as="geometry">
            <mxPoint x="-470" y="433.87" as="sourcePoint" />
            <mxPoint x="-340" y="370" as="targetPoint" />
            <Array as="points">
              <mxPoint x="-21" y="434" />
              <mxPoint x="-340" y="430" />
            </Array>
          </mxGeometry>
        </mxCell>
        <mxCell id="l6isEbVxny_hH4SEJy2Z-3" value="&lt;font style=&quot;font-size: 36px;&quot;&gt;backend&lt;/font&gt;" style="whiteSpace=wrap;html=1;aspect=fixed;rounded=1;labelBackgroundColor=none;fillColor=#dae8fc;strokeColor=#6c8ebf;" parent="1" vertex="1">
          <mxGeometry x="-634.69" y="765.31" width="134.69" height="134.69" as="geometry" />
        </mxCell>
        <mxCell id="l6isEbVxny_hH4SEJy2Z-4" value="&lt;div&gt;&lt;font style=&quot;font-size: 24px;&quot;&gt;&lt;b&gt;token based &lt;br&gt;&lt;/b&gt;&lt;/font&gt;&lt;/div&gt;&lt;div&gt;&lt;font size=&quot;3&quot;&gt;&lt;b&gt;Auth&lt;br&gt;-JSON web token&lt;/b&gt;&lt;/font&gt;&lt;/div&gt;&lt;div&gt;&lt;font size=&quot;3&quot;&gt;&lt;b&gt;-pyjwt&lt;/b&gt;&lt;/font&gt;&lt;/div&gt;&lt;div&gt;&lt;font size=&quot;3&quot;&gt;&lt;b&gt;&lt;br&gt;&lt;/b&gt;&lt;/font&gt;&lt;/div&gt;&lt;div&gt;&lt;font size=&quot;3&quot;&gt;&lt;b&gt;OR&lt;/b&gt;&lt;/font&gt;&lt;/div&gt;&lt;div&gt;&lt;font size=&quot;3&quot;&gt;&lt;b&gt;&lt;br&gt;&lt;/b&gt;&lt;/font&gt;&lt;/div&gt;&lt;div&gt;&lt;div&gt;&lt;font size=&quot;3&quot;&gt;&lt;b&gt;Hash and pass&lt;br&gt;[hash.lib]&lt;br&gt;&lt;/b&gt;&lt;/font&gt;&lt;/div&gt;&lt;/div&gt;" style="whiteSpace=wrap;html=1;aspect=fixed;rounded=1;labelBackgroundColor=none;" parent="1" vertex="1">
          <mxGeometry x="-670" y="485" width="190" height="190" as="geometry" />
        </mxCell>
        <mxCell id="l6isEbVxny_hH4SEJy2Z-6" value="" style="endArrow=classic;html=1;rounded=1;exitX=0.5;exitY=1;exitDx=0;exitDy=0;entryX=0.5;entryY=0;entryDx=0;entryDy=0;labelBackgroundColor=none;fontColor=default;" parent="1" source="l6isEbVxny_hH4SEJy2Z-4" target="l6isEbVxny_hH4SEJy2Z-3" edge="1">
          <mxGeometry width="50" height="50" relative="1" as="geometry">
            <mxPoint x="-520" y="600" as="sourcePoint" />
            <mxPoint x="-590" y="680" as="targetPoint" />
          </mxGeometry>
        </mxCell>
        <mxCell id="l6isEbVxny_hH4SEJy2Z-16" value="" style="endArrow=classic;html=1;rounded=1;exitX=1;exitY=0.5;exitDx=0;exitDy=0;labelBackgroundColor=none;fontColor=default;" parent="1" source="l6isEbVxny_hH4SEJy2Z-15" edge="1">
          <mxGeometry width="50" height="50" relative="1" as="geometry">
            <mxPoint x="-900" y="785.31" as="sourcePoint" />
            <mxPoint x="-920" y="830.31" as="targetPoint" />
          </mxGeometry>
        </mxCell>
        <mxCell id="l6isEbVxny_hH4SEJy2Z-19" value="&lt;div&gt;&lt;font style=&quot;font-size: 24px;&quot;&gt;selenium/&lt;/font&gt;&lt;/div&gt;&lt;div&gt;&lt;font size=&quot;3&quot;&gt;scrapy&lt;/font&gt;&lt;/div&gt;&lt;div&gt;&lt;font size=&quot;3&quot;&gt;pylibs for scraping&lt;br&gt;&lt;/font&gt;&lt;/div&gt;" style="whiteSpace=wrap;html=1;aspect=fixed;rounded=1;labelBackgroundColor=none;" parent="1" vertex="1">
          <mxGeometry x="-790" y="779.06" width="107.19" height="107.19" as="geometry" />
        </mxCell>
        <mxCell id="l6isEbVxny_hH4SEJy2Z-21" value="&lt;font style=&quot;font-size: 24px;&quot;&gt;Proxy Scrape&lt;br&gt;[flask/django*]&lt;/font&gt;" style="whiteSpace=wrap;html=1;aspect=fixed;rounded=1;align=center;verticalAlign=middle;fontFamily=Helvetica;fontSize=12;labelBackgroundColor=none;" parent="1" vertex="1">
          <mxGeometry x="-938.59" y="795.31" width="114.69" height="114.69" as="geometry" />
        </mxCell>
        <mxCell id="l6isEbVxny_hH4SEJy2Z-23" value="" style="endArrow=classic;startArrow=classic;html=1;rounded=0;entryX=0;entryY=0.5;entryDx=0;entryDy=0;labelBackgroundColor=none;fontColor=default;" parent="1" target="l6isEbVxny_hH4SEJy2Z-19" edge="1">
          <mxGeometry width="50" height="50" relative="1" as="geometry">
            <mxPoint x="-850" y="830.31" as="sourcePoint" />
            <mxPoint x="-800" y="785.31" as="targetPoint" />
          </mxGeometry>
        </mxCell>
        <mxCell id="l6isEbVxny_hH4SEJy2Z-32" value="&lt;font style=&quot;font-size: 18px;&quot;&gt;Logout feature&lt;/font&gt;" style="whiteSpace=wrap;html=1;aspect=fixed;rounded=1;strokeColor=default;align=center;verticalAlign=middle;fontFamily=Helvetica;fontSize=12;fontColor=default;labelBackgroundColor=none;fillColor=default;" parent="1" vertex="1">
          <mxGeometry x="-470" y="690.31" width="79.69" height="79.69" as="geometry" />
        </mxCell>
        <mxCell id="l6isEbVxny_hH4SEJy2Z-33" value="" style="endArrow=classic;startArrow=classic;html=1;rounded=0;exitX=1;exitY=0.5;exitDx=0;exitDy=0;entryX=0;entryY=0.5;entryDx=0;entryDy=0;" parent="1" source="l6isEbVxny_hH4SEJy2Z-3" target="l6isEbVxny_hH4SEJy2Z-32" edge="1">
          <mxGeometry width="50" height="50" relative="1" as="geometry">
            <mxPoint x="-260" y="710" as="sourcePoint" />
            <mxPoint x="-210" y="660" as="targetPoint" />
          </mxGeometry>
        </mxCell>
        <mxCell id="l6isEbVxny_hH4SEJy2Z-35" value="&lt;div&gt;&lt;font style=&quot;font-size: 24px;&quot;&gt;Entry point &lt;br&gt;&lt;/font&gt;&lt;/div&gt;&lt;div&gt;&lt;font size=&quot;3&quot;&gt;&lt;br&gt;&lt;/font&gt;&lt;/div&gt;" style="whiteSpace=wrap;html=1;aspect=fixed;rounded=1;strokeColor=default;align=center;verticalAlign=middle;fontFamily=Helvetica;fontSize=12;fontColor=default;labelBackgroundColor=none;fillColor=default;" parent="1" vertex="1">
          <mxGeometry x="-50" y="500" width="80" height="80" as="geometry" />
        </mxCell>
        <mxCell id="l6isEbVxny_hH4SEJy2Z-40" value="" style="endArrow=classic;startArrow=classic;html=1;rounded=0;exitX=1;exitY=0.5;exitDx=0;exitDy=0;" parent="1" source="lrqvdLVCCD_kgyAXPWSx-7" target="lrqvdLVCCD_kgyAXPWSx-9" edge="1">
          <mxGeometry width="50" height="50" relative="1" as="geometry">
            <mxPoint x="-140" y="490" as="sourcePoint" />
            <mxPoint x="-90" y="440" as="targetPoint" />
          </mxGeometry>
        </mxCell>
        <mxCell id="l6isEbVxny_hH4SEJy2Z-41" value="" style="shape=flexArrow;endArrow=classic;startArrow=classic;html=1;rounded=0;entryX=0.5;entryY=1;entryDx=0;entryDy=0;fillColor=#dae8fc;strokeColor=#6c8ebf;strokeWidth=0.5;" parent="1" target="lrqvdLVCCD_kgyAXPWSx-9" edge="1">
          <mxGeometry width="100" height="100" relative="1" as="geometry">
            <mxPoint x="184.57" y="385.31" as="sourcePoint" />
            <mxPoint x="184.57" y="305.31" as="targetPoint" />
            <Array as="points">
              <mxPoint x="184.57" y="345.31" />
            </Array>
          </mxGeometry>
        </mxCell>
        <mxCell id="l6isEbVxny_hH4SEJy2Z-46" value="&lt;div&gt;&lt;font style=&quot;font-size: 24px;&quot;&gt;Exit point&lt;/font&gt;&lt;/div&gt;&lt;div&gt;&lt;font size=&quot;3&quot;&gt;&lt;br&gt;&lt;/font&gt;&lt;/div&gt;" style="whiteSpace=wrap;html=1;aspect=fixed;rounded=1;strokeColor=default;align=center;verticalAlign=middle;fontFamily=Helvetica;fontSize=12;fontColor=default;labelBackgroundColor=none;fillColor=default;" parent="1" vertex="1">
          <mxGeometry x="-55" y="665.31" width="90" height="90" as="geometry" />
        </mxCell>
        <mxCell id="l6isEbVxny_hH4SEJy2Z-48" value="" style="endArrow=classic;html=1;rounded=0;dashed=1;" parent="1" target="l6isEbVxny_hH4SEJy2Z-46" edge="1">
          <mxGeometry width="50" height="50" relative="1" as="geometry">
            <mxPoint x="-410" y="720" as="sourcePoint" />
            <mxPoint x="-360" y="670" as="targetPoint" />
          </mxGeometry>
        </mxCell>
        <mxCell id="l6isEbVxny_hH4SEJy2Z-52" value="" style="endArrow=block;html=1;rounded=0;exitX=1;exitY=0.5;exitDx=0;exitDy=0;" parent="1" source="l6isEbVxny_hH4SEJy2Z-35" target="l6isEbVxny_hH4SEJy2Z-53" edge="1">
          <mxGeometry width="50" height="50" relative="1" as="geometry">
            <mxPoint x="-40" y="670" as="sourcePoint" />
            <mxPoint x="10" y="620" as="targetPoint" />
          </mxGeometry>
        </mxCell>
        <mxCell id="l6isEbVxny_hH4SEJy2Z-53" value="&lt;div&gt;&lt;font style=&quot;font-size: 24px;&quot;&gt;user runs&lt;/font&gt;&lt;/div&gt;&lt;div&gt;&lt;font size=&quot;3&quot;&gt;[chain lenght]&lt;/font&gt;&lt;/div&gt;&lt;div&gt;&lt;font size=&quot;3&quot;&gt;[priority]&lt;/font&gt;&lt;/div&gt;&lt;div&gt;&lt;font size=&quot;3&quot;&gt;&lt;br&gt;&lt;/font&gt;&lt;/div&gt;" style="whiteSpace=wrap;html=1;aspect=fixed;rounded=1;strokeColor=default;align=center;verticalAlign=middle;fontFamily=Helvetica;fontSize=12;fontColor=default;labelBackgroundColor=none;fillColor=default;" parent="1" vertex="1">
          <mxGeometry x="120" y="468.88" width="120" height="120" as="geometry" />
        </mxCell>
        <mxCell id="l6isEbVxny_hH4SEJy2Z-57" value="" style="endArrow=classic;html=1;rounded=0;exitX=1;exitY=0.5;exitDx=0;exitDy=0;" parent="1" source="l6isEbVxny_hH4SEJy2Z-53" target="l6isEbVxny_hH4SEJy2Z-58" edge="1">
          <mxGeometry width="50" height="50" relative="1" as="geometry">
            <mxPoint x="50" y="700" as="sourcePoint" />
            <mxPoint x="100" y="650" as="targetPoint" />
          </mxGeometry>
        </mxCell>
        <mxCell id="l6isEbVxny_hH4SEJy2Z-58" value="&lt;div&gt;&lt;font style=&quot;font-size: 24px;&quot;&gt;Running the script&lt;/font&gt;&lt;/div&gt;&lt;div&gt;&lt;font size=&quot;3&quot;&gt;{showing cli}&lt;br&gt;&lt;/font&gt;&lt;/div&gt;" style="whiteSpace=wrap;html=1;aspect=fixed;rounded=1;strokeColor=default;align=center;verticalAlign=middle;fontFamily=Helvetica;fontSize=12;fontColor=default;labelBackgroundColor=none;fillColor=default;" parent="1" vertex="1">
          <mxGeometry x="296.06" y="474.44" width="108.88" height="108.88" as="geometry" />
        </mxCell>
        <mxCell id="l6isEbVxny_hH4SEJy2Z-59" value="" style="endArrow=classic;html=1;rounded=1;exitX=0.25;exitY=0;exitDx=0;exitDy=0;entryX=0.5;entryY=0;entryDx=0;entryDy=0;strokeColor=default;align=center;verticalAlign=middle;fontFamily=Helvetica;fontSize=12;fontColor=default;labelBackgroundColor=none;fillColor=default;dashed=1;" parent="1" source="lrqvdLVCCD_kgyAXPWSx-4" target="l6isEbVxny_hH4SEJy2Z-58" edge="1">
          <mxGeometry width="50" height="50" relative="1" as="geometry">
            <mxPoint x="-320" y="350" as="sourcePoint" />
            <mxPoint x="177" y="411" as="targetPoint" />
            <Array as="points">
              <mxPoint x="-920" y="80" />
              <mxPoint x="-602" y="80" />
              <mxPoint x="340" y="80" />
            </Array>
          </mxGeometry>
        </mxCell>
        <mxCell id="l6isEbVxny_hH4SEJy2Z-72" value="&lt;font style=&quot;font-size: 24px;&quot;&gt;&lt;b&gt;FETCHING THE PROGRESS IN REAL TIME&lt;/b&gt;&lt;b&gt;&lt;br&gt;&lt;/b&gt;&lt;/font&gt;" style="edgeLabel;html=1;align=center;verticalAlign=middle;resizable=0;points=[];" parent="l6isEbVxny_hH4SEJy2Z-59" vertex="1" connectable="0">
          <mxGeometry x="0.1191" y="-2" relative="1" as="geometry">
            <mxPoint as="offset" />
          </mxGeometry>
        </mxCell>
        <mxCell id="l6isEbVxny_hH4SEJy2Z-60" value="&lt;b&gt;&lt;font color=&quot;#3333ff&quot; style=&quot;font-size: 20px;&quot;&gt;GUI&lt;/font&gt;&lt;/b&gt;" style="rounded=1;whiteSpace=wrap;html=1;fillColor=#d5e8d4;strokeColor=#82b366;" parent="1" vertex="1">
          <mxGeometry x="80" y="975.31" width="120" height="60" as="geometry" />
        </mxCell>
        <mxCell id="l6isEbVxny_hH4SEJy2Z-61" value="&lt;div&gt;&lt;font style=&quot;font-size: 36px;&quot;&gt;showing the list &lt;br&gt;&lt;/font&gt;&lt;/div&gt;&lt;div&gt;&lt;font size=&quot;3&quot;&gt;of connect IP&#39;s&lt;br&gt;&lt;/font&gt;&lt;/div&gt;&lt;div&gt;&lt;font size=&quot;3&quot;&gt;&lt;br&gt;&lt;/font&gt;&lt;/div&gt;&lt;div&gt;&lt;font size=&quot;3&quot;&gt;[status check]&lt;br&gt;&lt;/font&gt;&lt;/div&gt;" style="rounded=1;whiteSpace=wrap;html=1;" parent="1" vertex="1">
          <mxGeometry x="275" y="635.31" width="150" height="150" as="geometry" />
        </mxCell>
        <mxCell id="l6isEbVxny_hH4SEJy2Z-62" value="" style="endArrow=classic;html=1;rounded=0;exitX=0.5;exitY=1;exitDx=0;exitDy=0;" parent="1" source="l6isEbVxny_hH4SEJy2Z-58" target="l6isEbVxny_hH4SEJy2Z-61" edge="1">
          <mxGeometry width="50" height="50" relative="1" as="geometry">
            <mxPoint x="180" y="800" as="sourcePoint" />
            <mxPoint x="230" y="750" as="targetPoint" />
          </mxGeometry>
        </mxCell>
        <mxCell id="l6isEbVxny_hH4SEJy2Z-63" value="&lt;div&gt;&lt;font style=&quot;font-size: 36px;&quot;&gt;config parser(python)&lt;/font&gt;&lt;/div&gt;&lt;div&gt;&lt;font size=&quot;3&quot;&gt;to parse info from &lt;br&gt;&lt;/font&gt;&lt;/div&gt;&lt;div&gt;&lt;font size=&quot;3&quot;&gt;.conf file&lt;br&gt;&lt;/font&gt;&lt;/div&gt;" style="rounded=1;whiteSpace=wrap;html=1;" parent="1" vertex="1">
          <mxGeometry x="560" y="615.31" width="190" height="180" as="geometry" />
        </mxCell>
        <mxCell id="l6isEbVxny_hH4SEJy2Z-64" value="" style="endArrow=classic;html=1;rounded=0;exitX=0;exitY=0.5;exitDx=0;exitDy=0;entryX=1;entryY=0.5;entryDx=0;entryDy=0;dashed=1;" parent="1" source="l6isEbVxny_hH4SEJy2Z-63" target="l6isEbVxny_hH4SEJy2Z-61" edge="1">
          <mxGeometry width="50" height="50" relative="1" as="geometry">
            <mxPoint x="320" y="840" as="sourcePoint" />
            <mxPoint x="370" y="790" as="targetPoint" />
          </mxGeometry>
        </mxCell>
        <mxCell id="l6isEbVxny_hH4SEJy2Z-65" value="" style="endArrow=classic;startArrow=classic;html=1;rounded=0;entryX=0.5;entryY=1;entryDx=0;entryDy=0;exitX=0;exitY=0.5;exitDx=0;exitDy=0;" parent="1" source="lrqvdLVCCD_kgyAXPWSx-4" target="l6isEbVxny_hH4SEJy2Z-63" edge="1">
          <mxGeometry width="50" height="50" relative="1" as="geometry">
            <mxPoint x="-590" y="760" as="sourcePoint" />
            <mxPoint x="100" y="710" as="targetPoint" />
            <Array as="points">
              <mxPoint x="-1230" y="540" />
              <mxPoint x="-1220" y="1080" />
              <mxPoint x="-590" y="1080" />
              <mxPoint x="20" y="1080" />
              <mxPoint x="655" y="1070" />
            </Array>
          </mxGeometry>
        </mxCell>
        <mxCell id="l6isEbVxny_hH4SEJy2Z-66" value="" style="endArrow=classic;html=1;rounded=0;exitX=0.5;exitY=0;exitDx=0;exitDy=0;entryX=0.5;entryY=1;entryDx=0;entryDy=0;" parent="1" source="l6isEbVxny_hH4SEJy2Z-21" target="l6isEbVxny_hH4SEJy2Z-68" edge="1">
          <mxGeometry width="50" height="50" relative="1" as="geometry">
            <mxPoint x="-880" y="785.31" as="sourcePoint" />
            <mxPoint x="-880" y="665.31" as="targetPoint" />
          </mxGeometry>
        </mxCell>
        <mxCell id="l6isEbVxny_hH4SEJy2Z-68" value="&lt;div&gt;&lt;font style=&quot;font-size: 24px;&quot;&gt;request/subprocess&lt;/font&gt;&lt;/div&gt;&lt;div&gt;&lt;font size=&quot;3&quot;&gt;to pipe scraped info to script&lt;br&gt;&lt;/font&gt;&lt;/div&gt;" style="rounded=1;whiteSpace=wrap;html=1;" parent="1" vertex="1">
          <mxGeometry x="-959.37" y="635.31" width="156.25" height="120" as="geometry" />
        </mxCell>
        <mxCell id="l6isEbVxny_hH4SEJy2Z-71" value="" style="endArrow=classic;html=1;rounded=0;" parent="1" target="l6isEbVxny_hH4SEJy2Z-46" edge="1">
          <mxGeometry width="50" height="50" relative="1" as="geometry">
            <mxPoint x="310" y="710" as="sourcePoint" />
            <mxPoint x="360" y="660" as="targetPoint" />
          </mxGeometry>
        </mxCell>
        <mxCell id="l6isEbVxny_hH4SEJy2Z-73" value="" style="endArrow=classic;html=1;rounded=0;exitX=0.5;exitY=0;exitDx=0;exitDy=0;entryX=0.5;entryY=1;entryDx=0;entryDy=0;" parent="1" source="l6isEbVxny_hH4SEJy2Z-68" target="lrqvdLVCCD_kgyAXPWSx-4" edge="1">
          <mxGeometry width="50" height="50" relative="1" as="geometry">
            <mxPoint x="-860" y="540" as="sourcePoint" />
            <mxPoint x="-810" y="490" as="targetPoint" />
            <Array as="points" />
          </mxGeometry>
        </mxCell>
        <mxCell id="l6isEbVxny_hH4SEJy2Z-76" value="&lt;div&gt;&lt;font style=&quot;font-size: 24px;&quot;&gt;postgres &lt;br&gt;&lt;/font&gt;&lt;/div&gt;&lt;div&gt;&lt;font size=&quot;3&quot;&gt;SQL&lt;br&gt;&lt;/font&gt;&lt;/div&gt;" style="rounded=0;whiteSpace=wrap;html=1;fillColor=#dae8fc;strokeColor=#6c8ebf;" parent="1" vertex="1">
          <mxGeometry x="-400" y="530" width="100" height="100" as="geometry" />
        </mxCell>
        <mxCell id="l6isEbVxny_hH4SEJy2Z-77" value="" style="endArrow=classic;startArrow=classic;html=1;rounded=0;" parent="1" edge="1">
          <mxGeometry width="50" height="50" relative="1" as="geometry">
            <mxPoint x="-510" y="518.88" as="sourcePoint" />
            <mxPoint x="-460" y="468.88" as="targetPoint" />
          </mxGeometry>
        </mxCell>
        <mxCell id="l6isEbVxny_hH4SEJy2Z-78" value="" style="endArrow=classic;startArrow=classic;html=1;rounded=0;entryX=0.5;entryY=1;entryDx=0;entryDy=0;" parent="1" target="lrqvdLVCCD_kgyAXPWSx-7" edge="1">
          <mxGeometry width="50" height="50" relative="1" as="geometry">
            <mxPoint x="-440" y="398.88" as="sourcePoint" />
            <mxPoint x="-390" y="348.88" as="targetPoint" />
          </mxGeometry>
        </mxCell>
        <mxCell id="l6isEbVxny_hH4SEJy2Z-79" value="" style="endArrow=classic;startArrow=classic;html=1;rounded=0;entryX=-0.074;entryY=0.487;entryDx=0;entryDy=0;entryPerimeter=0;" parent="1" target="l6isEbVxny_hH4SEJy2Z-76" edge="1">
          <mxGeometry width="50" height="50" relative="1" as="geometry">
            <mxPoint x="-510" y="578.88" as="sourcePoint" />
            <mxPoint x="-460" y="528.88" as="targetPoint" />
          </mxGeometry>
        </mxCell>
        <mxCell id="l6isEbVxny_hH4SEJy2Z-83" value="" style="endArrow=classic;startArrow=classic;html=1;rounded=0;exitX=1;exitY=0.5;exitDx=0;exitDy=0;" parent="1" source="lrqvdLVCCD_kgyAXPWSx-4" target="l6isEbVxny_hH4SEJy2Z-3" edge="1">
          <mxGeometry width="50" height="50" relative="1" as="geometry">
            <mxPoint x="-590" y="580" as="sourcePoint" />
            <mxPoint x="-540" y="530" as="targetPoint" />
          </mxGeometry>
        </mxCell>
        <mxCell id="l6isEbVxny_hH4SEJy2Z-85" value="&lt;font style=&quot;font-size: 24px;&quot;&gt;&lt;b&gt;&lt;font&gt;BACKEND&lt;/font&gt;&lt;/b&gt;&lt;/font&gt;" style="rounded=1;whiteSpace=wrap;html=1;fillColor=#d5e8d4;strokeColor=#82b366;align=center;verticalAlign=middle;fontFamily=Helvetica;fontSize=12;fontColor=default;" parent="1" vertex="1">
          <mxGeometry x="-872.81" y="337" width="190" height="131.12" as="geometry" />
        </mxCell>
        <mxCell id="iIjBL9-EONCNVCmtAW0H-3" value="" style="endArrow=classic;startArrow=classic;html=1;rounded=1;labelBackgroundColor=none;fontColor=default;exitX=0;exitY=0.5;exitDx=0;exitDy=0;" parent="1" source="l6isEbVxny_hH4SEJy2Z-3" target="l6isEbVxny_hH4SEJy2Z-15" edge="1">
          <mxGeometry width="50" height="50" relative="1" as="geometry">
            <mxPoint x="-650" y="833" as="sourcePoint" />
            <mxPoint x="-1000" y="790" as="targetPoint" />
            <Array as="points">
              <mxPoint x="-635" y="960" />
              <mxPoint x="-1040" y="960" />
            </Array>
          </mxGeometry>
        </mxCell>
        <mxCell id="l6isEbVxny_hH4SEJy2Z-15" value="RESTfull API" style="whiteSpace=wrap;html=1;aspect=fixed;rounded=1;labelBackgroundColor=none;" parent="1" vertex="1">
          <mxGeometry x="-1080" y="795.31" width="74.69" height="74.69" as="geometry" />
        </mxCell>
      </root>
    </mxGraphModel>
  </diagram>
</mxfile>
